name C:\Users\u0101727\Documents\MyRepositories\upper-imu-dc\Results\main_tracking\Case_45\FLX01_linearAccelerations_bodyFrame.mot
datacolumns 4
datarows 47
range 5.00600000 5.28200000
endheader 
time	radius_imu_x	radius_imu_y	radius_imu_z	
          5.00600000	          0.45700363	          3.56123725	         11.15451056	
          5.01200000	          0.53181973	          3.62803732	         11.19676300	
          5.01800000	          0.59570323	          3.69637317	         11.23351089	
          5.02400000	          0.65046216	          3.76626928	         11.26411321	
          5.03000000	          0.69845287	          3.83772603	         11.28791593	
          5.03600000	          0.74203456	          3.91072145	         11.30395334	
          5.04200000	          0.78284137	          3.98525963	         11.31052805	
          5.04800000	          0.82118805	          4.06138629	         11.30516026	
          5.05400000	          0.85629732	          4.13917769	         11.28537886	
          5.06000000	          0.88721388	          4.21869098	         11.24965470	
          5.06600000	          0.91361071	          4.30001487	         11.19757519	
          5.07200000	          0.93565617	          4.38322740	         11.12951279	
          5.07800000	          0.95366609	          4.46844558	         11.04625084	
          5.08400000	          0.96776468	          4.55576582	         10.94878247	
          5.09000000	          0.97780616	          4.64524606	         10.83821301	
          5.09600000	          0.98346344	          4.73691377	         10.71570817	
          5.10200000	          0.98424960	          4.83073388	         10.58249019	
          5.10800000	          0.97966950	          4.92664502	         10.43980041	
          5.11400000	          0.96925140	          5.02455681	         10.28889075	
          5.12000000	          0.95260226	          5.12436846	         10.13101826	
          5.12600000	          0.92938263	          5.22596451	          9.96743213	
          5.13200000	          0.89934439	          5.32923745	          9.79939337	
          5.13800000	          0.86224621	          5.43406668	          9.62814479	
          5.14400000	          0.81783896	          5.54032352	          9.45490896	
          5.15000000	          0.76581929	          5.64785584	          9.28088619	
          5.15600000	          0.70580618	          5.75649336	          9.10726317	
          5.16200000	          0.63732602	          5.86602011	          8.93523765	
          5.16800000	          0.55983601	          5.97619236	          8.76604693	
          5.17400000	          0.47275451	          6.08672439	          8.60099496	
          5.18000000	          0.37551715	          6.19729867	          8.44146439	
          5.18600000	          0.26761660	          6.30755685	          8.28891152	
          5.19200000	          0.14869362	          6.41713144	          8.14479608	
          5.19800000	          0.01855197	          6.52562753	          8.01054768	
          5.20400000	         -0.12278836	          6.63264443	          7.88748403	
          5.21000000	         -0.27506351	          6.73778805	          7.77672286	
          5.21600000	         -0.43783395	          6.84064319	          7.67912490	
          5.22200000	         -0.61041846	          6.94083714	          7.59518346	
          5.22800000	         -0.79203539	          7.03798618	          7.52502325	
          5.23400000	         -0.98180453	          7.13172751	          7.46838372	
          5.24000000	         -1.17881196	          7.22170947	          7.42462293	
          5.24600000	         -1.38215837	          7.30761389	          7.39274384	
          5.25200000	         -1.59099650	          7.38912847	          7.37141982	
          5.25800000	         -1.80454886	          7.46598491	          7.35903967	
          5.26400000	         -2.02211251	          7.53794899	          7.35375855	
          5.27000000	         -2.24307670	          7.60482156	          7.35355838	
          5.27600000	         -2.46687562	          7.66647817	          7.35631518	
          5.28200000	         -2.69304046	          7.72281700	          7.35993027	
